<svg version="1.1" id="Layer_1" xmlns:x="ns_extend;" xmlns:i="ns_ai;" xmlns:graph="ns_graphs;" xmlns="http://www.w3.org/2000/svg" xmlns:xlink="http://www.w3.org/1999/xlink" x="0px" y="0px" viewBox="0 0 583.7 226.3" style="enable-background:new 0 0 583.7 226.3;" xml:space="preserve">
 <style type="text/css">
  .st0{fill:#0055B8;}
	.st1{fill:#231F20;}
 </style>
 <metadata>
  <sfw xmlns="ns_sfw;">
   <slices>
   </slices>
   <sliceSourceBounds bottomLeftOrigin="true" height="226.3" width="583.7" x="-91.6" y="-313.3">
   </sliceSourceBounds>
  </sfw>
 </metadata>
 <g>
  <g id="tag">
   <path class="st0" d="M235.1,225.8c-0.9,0.3-1.8,0.4-2.6,0.4c-4.9,0-6.3-3.9-6.3-8.7s1.4-8.8,6.3-8.8c0.9,0,1.8,0.1,2.6,0.4v2.2
			H235c-0.7-0.3-1.5-0.4-2.2-0.4c-2.9,0-3.7,2.3-3.7,6.5s0.9,6.6,3.8,6.6c0.7,0,1.5-0.1,2.2-0.4h0.1V225.8z M249.3,224
			c-1.1,1.6-2.9,2.4-4.8,2.3c-1.9,0.1-3.6-0.7-4.7-2.2c-0.9-1.4-1.2-3.4-1.2-6.6s0.4-5.2,1.2-6.6c1.1-1.6,2.9-2.4,4.8-2.3
			c1.9-0.1,3.6,0.7,4.7,2.3c0.9,1.4,1.2,3.4,1.2,6.5C250.6,220.6,250.2,222.6,249.3,224 M247,222.6c0.5-1,0.6-2.4,0.6-5.1
			c0-2.9-0.2-4.3-0.6-5.3c-0.7-1.4-2.4-1.9-3.7-1.2c-0.5,0.3-0.9,0.7-1.2,1.2c-0.5,1-0.6,2.4-0.6,5.1c0,2.9,0.2,4.3,0.7,5.3
			c0.7,1.4,2.3,1.9,3.7,1.2C246.3,223.6,246.8,223.2,247,222.6 M258.7,208.8l3.8,13.2l3.8-13.2h3.6V226h-2.7v-14l-3.7,13.3h-2.4
			l-3.7-13.3v14h-2.4v-17.2H258.7L258.7,208.8z M278.9,208.8c1.3-0.1,2.5,0.2,3.7,0.7c1.3,0.8,2.1,2.3,2.1,4.8s-0.8,4.1-2.1,5
			c-1.1,0.6-2.4,0.9-3.6,0.8h-1.1v5.8H275v-17.2H278.9z M277.8,218h1.2c0.6,0.1,1.3-0.1,1.8-0.4c0.7-0.5,1-1.5,1-3.1s-0.3-2.6-1-3
			c-0.5-0.4-1.2-0.5-1.8-0.5h-1.2L277.8,218z M291.6,219.1v7h-2.6v-17.3h4.3c1.3-0.1,2.6,0.2,3.7,0.8c1.1,0.8,1.7,2.1,1.7,4.1
			c0,2.7-1,4.2-2.6,4.9l3.2,7.4h-3l-2.8-7L291.6,219.1z M291.6,216.9h1.8c0.6,0,1.2-0.1,1.7-0.4c0.7-0.7,1-1.6,0.9-2.6
			c0.1-0.9-0.2-1.9-0.9-2.5c-0.5-0.3-1.1-0.5-1.7-0.4h-1.7L291.6,216.9z M311.3,208.8v2.2H306v5h4.5v2.2H306v5.6h5.5v2.2h-8.2v-17.2
			H311.3z M318.7,208.8v7.2h5.2v-7.2h2.8V226h-2.8v-7.8h-5.2v7.8h-2.8v-17.2H318.7z M339.7,208.8v2.2h-5.3v5h4.5v2.2h-4.5v5.6h5.5
			v2.2h-8.2v-17.2H339.7z M347.1,208.8l5.8,12.2v-12.2h2.4V226h-2.5l-6-12.5V226h-2.4v-17.2H347.1z M367.6,211.3h-0.2
			c-0.8-0.3-1.7-0.5-2.6-0.5c-1.5,0-2.2,0.7-2.2,2c0,2,1.7,2.6,3.2,3.8c1.6,1.1,2.5,2.8,2.5,4.7c0,3.3-2,4.8-5.2,4.8
			c-1.1,0-2.1-0.2-3.2-0.5v-2.2h0.2c0.9,0.4,1.9,0.6,3,0.6c1.2,0.2,2.3-0.6,2.5-1.8c0-0.2,0-0.3,0-0.5c0-2.2-1.9-2.9-3.6-4.3
			c-1.3-1-2.1-2.6-2-4.2c0-2.9,1.8-4.5,4.9-4.5c1,0,2,0.2,3,0.4L367.6,211.3z M372.5,208.8h2.8V226h-2.8V208.8z M382,208.8l3.2,14
			l3.3-14h2.5l-4.5,17.2h-3l-4.4-17.2H382z M402.9,208.8v2.2h-5.3v5h4.5v2.2h-4.5v5.6h5.5v2.2h-8.2v-17.2H402.9z M422.5,225.8
			c-0.9,0.3-1.8,0.4-2.7,0.4c-4.9,0-6.3-3.9-6.3-8.7s1.4-8.8,6.3-8.8c0.9,0,1.8,0.1,2.7,0.4v2.2h-0.1c-0.7-0.3-1.5-0.4-2.2-0.4
			c-2.9,0-3.7,2.3-3.7,6.5s0.9,6.6,3.8,6.6c0.7,0,1.5-0.1,2.2-0.4h0.1V225.8z M434.7,226l-1-4.3H429l-1,4.3h-2.4l4.5-17.2h3.2
			l4.4,17.2H434.7z M429.5,219.6h3.8l-1.8-7.9L429.5,219.6z M444.1,208.8l5.8,12.2v-12.2h2.4V226h-2.5l-6-12.5V226h-2.4v-17.2H444.1
			z M465.7,225.8c-0.9,0.3-1.8,0.4-2.6,0.4c-4.9,0-6.3-3.9-6.3-8.7s1.4-8.8,6.3-8.8c0.9,0,1.8,0.1,2.6,0.4v2.2h-0.1
			c-0.7-0.3-1.5-0.4-2.2-0.4c-2.9,0-3.7,2.3-3.7,6.5s0.9,6.6,3.8,6.6c0.7,0,1.5-0.1,2.2-0.4h0.1V225.8z M478.1,208.8v2.2h-5.3v5h4.5
			v2.2h-4.5v5.6h5.5v2.2h-8.2v-17.2H478.1z M485.3,219.1v7h-2.7v-17.3h4.3c1.3-0.1,2.6,0.2,3.7,0.8c1.1,0.8,1.7,2.1,1.7,4.1
			c0,2.7-1,4.2-2.6,4.9l3.2,7.4h-3l-2.8-7L485.3,219.1z M485.3,216.9h1.7c0.6,0,1.2-0.1,1.7-0.4c0.7-0.7,1-1.6,0.9-2.6
			c0.1-0.9-0.2-1.9-0.9-2.5c-0.5-0.3-1.1-0.4-1.7-0.4h-1.7L485.3,216.9z M512.1,225.8c-0.9,0.3-1.8,0.4-2.7,0.4
			c-4.9,0-6.3-3.9-6.3-8.7s1.4-8.8,6.3-8.8c0.9,0,1.8,0.1,2.7,0.4v2.2H512c-0.7-0.3-1.5-0.4-2.2-0.4c-2.9,0-3.7,2.3-3.7,6.5
			s0.9,6.6,3.8,6.6c0.7,0,1.5-0.1,2.2-0.4h0.1L512.1,225.8z M524.5,208.8v2.2h-5.3v5h4.5v2.2h-4.5v5.6h5.5v2.2h-8.2v-17.2H524.5
			L524.5,208.8z M531.9,208.8l5.8,12.2v-12.2h2.4V226h-2.5l-6-12.5V226h-2.4v-17.2H531.9L531.9,208.8z M553.8,208.8v2.3h-3.6v15
			h-2.8v-15h-3.6v-2.3H553.8L553.8,208.8z M565.7,208.8v2.2h-5.3v5h4.5v2.2h-4.5v5.6h5.5v2.2h-8.2v-17.2H565.7L565.7,208.8z
			 M573,219.1v7h-2.7v-17.3h4.3c1.3-0.1,2.6,0.2,3.7,0.8c1.1,0.8,1.7,2.1,1.7,4.1c0,2.7-1,4.2-2.6,4.9l3.2,7.4h-3l-2.8-7L573,219.1z
			 M573,216.9h1.8c0.6,0,1.2-0.1,1.7-0.4c0.7-0.7,1-1.6,0.9-2.6c0.1-0.9-0.2-1.9-0.8-2.5c-0.5-0.3-1.1-0.5-1.7-0.4H573V216.9z">
   </path>
  </g>
  <g id="puff">
   <path class="st0" d="M159.2,144.5l-0.7-2.9c14.6-1.7,27.1-5,40.1-9V97c-11.4,5.9-23.1,10.6-35.1,15.9l-1.3-2.3
			c12.6-5.8,24.6-12.9,36.4-20.2V74.1c-8.4,5.6-17,11-25.7,16.5l-1.4-1.8c9.4-6.3,18.5-13.1,27.1-20.5V26.2H192
			c-3.7,6.2-7.4,12.3-11.3,18.3l-2.7-1.7c3.2-5.4,6.1-10.9,8.7-16.6h-67.8c-1.3,12.6-4.2,24.6-6.3,37.2l-3.1-0.6
			c1.9-12.1,3.1-24.4,3.7-36.6H0v59.9c11.1,10,20.8,21.1,30.8,32.2l-2.4,2C19.7,111.2,9.8,103.1,0,95.1v9.3c8.4,6.4,12,9.7,20.5,16
			l-1.7,2c-7.5-5.4-11-6.3-18.9-11v3.8c15.7,7.9,29.8,18.2,44.2,28.6l-1.8,2c-13.1-9.5-27.5-17-42.3-23.4v5
			c7.6,2.9,15.2,6.1,22.9,9.3l-1.5,2.4c-7-2.8-14.2-5.2-21.5-7.4v3.6c8.3,2.7,17.6,6.1,26,8.6l-0.6,3.1c-8-2.3-17.2-4.8-25.4-6.5
			v3.8c11.5,2.4,22.9,5.4,34.7,8.1l-0.6,2.4c-11.3-2.5-22.6-4.3-34.1-5.6v3.6c2.3,0.1,4.6,0.2,6.9,0.3l0.1,3c-2.3,0-4.7,0.1-7,0.1
			v10.9c3.9-0.6,9.8-1.7,13.7-2.4l0.6,2.9c-4.1,0.8-10.2,2.2-14.3,3.2v2.9c13.3-4.4,26.8-8.1,40.5-11l0.6,1.7
			c-14.1,4.2-27.8,9.3-41.1,15.5v4.2c6.3-3.2,12.7-6.1,19.4-8.7l1.1,2.6c-7.2,3-14.1,6.7-20.5,11.1v5c9.8-6.5,21.4-13.9,31.8-19.5
			l1.4,2.7c-11.5,6.3-23.1,15.6-33.2,23.7v4.4c12.9-10.9,27-19.7,40.9-29.6l1.6,2.4c-15.2,11.4-28.8,24-42.5,37.2v5
			c7.1-6.8,16.1-12.5,22.8-19.4l2.2,2.3c-6.7,7-13,14.3-19.3,21.7h8.5c5.3-6.5,10.9-12.6,16-19.8l2.7,2.1c-3.9,5.8-7.5,11.7-11,17.6
			h4.5c6.9-14.6,16.2-27.8,24-42l2.4,1.3c-7.1,13.4-13.9,26.8-19.4,40.8h4.9c2.9-5.9,5.3-12.1,7.4-18.3l3.1,1.1
			c-2.2,7.1-4,12.4-5.5,17.3H48c7.7-38.9,13.3-61.1,13.3-61.1l2.8,0.9c0,0-4,22.6-10.4,60.2h4c1.2-9.9,2.7-19.8,4.2-29.9l2.8,0.6
			c-1.4,9.7-2.4,19.5-2.9,29.2h3.6c-0.2-3-0.4-7-0.7-10.2l3-0.3c0.4,3.4,0.8,7.2,1.3,10.6h4c-0.2-1.1-0.6-4-0.8-5.1l3.1-0.7
			c0.3,1.4,0.9,4.5,1.2,5.9H82c-2.1-6.3-4-12.6-5.8-19l2.3-0.7c2.2,6.7,4.9,13.3,8,19.7H92c-7.1-13.6-12.9-27.6-19-42.1l2.3-1
			c6.6,15.4,15,29.2,23.9,43h5.9c-6.8-9.6-13.4-20.4-19.7-30.7l2.5-1.8c7.4,11.6,17.1,21.8,25.6,32.6h4.8
			c-11.1-13.1-20.7-26.1-30.9-40.4l2.2-1.9c11.2,15.3,23.5,28.5,36.4,42.2h11.2c-10.5-8.6-20.9-17.3-30.8-26.6l2.1-2
			c10.5,10.2,35.8,25.7,35.8,25.7s-1.3,1.5-2.6,2.8h57v-44.4c-10.7-0.6-18.5-2.4-30.2-4.4l0.5-3.1c11.4,1.8,19.4,1.5,29.7,1.3V138
			C185.5,141,172.4,143.1,159.2,144.5 M178.6,119.5c0,0,0.7,5,1.5,6.4c-18.8,8.4-38,11-57.9,16.1l-0.7-2.9
			C141.1,133.9,178.6,119.5,178.6,119.5 M123.2,176.2c-13.2-2-25.6-6.1-38.5-9.4l0.5-2.6c12.9,3.3,38.8,5.7,38.8,5.7
			S123.5,174.7,123.2,176.2 M149.8,187.3c-0.7,1.6-1.1,3.6-1.8,5.2c-11.6-3.1-22.9-8.2-34.2-12.4l1.2-2.6
			C126.4,181.7,138.1,184.4,149.8,187.3 M174,75.3c-11.8,13.1-38.7,34.8-38.7,34.8l-1.7-2c8.5-7.4,35.8-38.4,35.8-38.4
			S172.9,74.1,174,75.3 M168,40.7c-10.5,19.2-22.4,37.5-35.8,54.8l-2-1.5c13.5-17.4,23.1-37.2,33.2-56.8
			C164.8,38.3,166.7,39.6,168,40.7 M134.9,52.8c1.6,1,3.6,2.5,5.1,3.3c-7.8,19.9-19.7,37.6-31,55.5l-2-1.4
			c11.3-18.1,20.2-37.6,28-57.5 M120.9,122.3c1,1.2,3.6,4.9,3.6,4.9s-13.7,10.3-21.8,14.8l-1.4-2.2c6.8-5.4,13.5-10.5,19.5-17.6
			 M97.8,159.5c-7.2,0.6-14.7,0.3-21.9,0.6l-0.3-2.4c7.2-0.3,14.3-2.6,21.4-3.1C97.1,156,97.6,158.1,97.8,159.5 M71.6,156.6l-1.9-2
			c5-5.2,18.8-18.1,23.7-23.5c1,1,2.4,3.2,3.4,4.2C90.5,140.4,76.6,151.4,71.6,156.6 M68.6,147.7c4.3-11.5,9-22.7,12.1-34.6
			c1.4,0.5,3.7,1.6,5.2,2.2c-3.2,11.9-10.2,21.7-14.7,33.2L68.6,147.7z M93.7,70.9c-1.6,11.4-6.2,22.7-9,33.9l-3-0.6
			C84.1,93,86,81.6,87.2,70.1C88.9,70.4,92,70.6,93.7,70.9 M82.4,54.8c1.1,34.4-6.6,58.4-10.3,74l-2.8-0.2c6-24.5,8.4-49.7,7-74.9
			C78.2,53.9,80.6,54.6,82.4,54.8 M71.5,59.6c1.7,14.5-0.7,29.2-1.2,43.8l-3,0.2c0.4-14.4-1-28.8-3-43.1L71.5,59.6 M67.1,144.9h-2.6
			c-0.6-14.8-2.9-29.6-5.4-44.2c1.5-0.2,4-1.1,5.5-1.2C67,114.2,66.6,130.1,67.1,144.9 M55.3,55c3.9,14,4.9,23.4,6.8,37.8L59.2,93
			c-2.1-14.2-5.8-22.2-9.8-36C51.1,56.5,53.5,55.5,55.3,55 M45.4,61.1c6.5,16.9,9.4,32,13.1,49.4l-2.5,0.8
			c-4-16.6-9.6-32.9-16.6-48.5C41,62.1,43.7,61.8,45.4,61.1 M34.4,70c10.3,18.6,18.8,38.2,25.2,58.5l-2.5,1
			c-7.2-20.8-17.9-37.1-28.6-56.3C30,72.4,32.9,70.8,34.4,70 M22,73c12.5,17.2,20.3,34.1,30,53.1l-2.2,0.8
			c-10-18.7-21.2-33.2-33.8-50.3C17.5,75.6,20.5,74,22,73 M0.9,78.8c1.5-1.1,4.3-2.8,5.7-3.8c7.6,8.8,13,18.6,20.3,27.6l-2.5,1.9
			C17,95.5,8.5,87.4,0.9,78.8 M26.6,108.3c1.3-0.9,3.8-1.7,5.1-2.6c7.2,8.7,11.6,18.3,17.8,27.7l-2,1.5
			C41.3,125.6,33.9,116.8,26.6,108.3 M27.5,127.8c1.1-1.1,2.9-3.6,4-4.7c9.5,7.5,17.1,16.8,25.7,25.2l-1.9,1.9
			C46.6,141.8,37.1,135.2,27.5,127.8 M6,163c-0.1-1.6,0-3.7-0.1-5.2c15-1.8,30.4-0.1,45.5,0.2l-0.2,2.6c-14.9-0.3-29.8,0.5-44.5,2.4
			 M31.2,201.6c-1.2-1.1-2.8-3.2-3.9-4.4c8.1-10.6,18.1-18.7,27.4-28.3l1.8,1.9C47.2,180.4,39.2,190.9,31.2,201.6 M37.5,175
			c-0.6-1.3-2.7-3.6-3.3-4.9c6.5-3.3,15.7-5.5,22.4-8.4l0.5,2.5C50.5,167.1,43.9,171.7,37.5,175 M60,157.9c-9.2-3.7-20-6.6-29.5-9.2
			c0.5-1.4,1.1-3.9,1.7-5.2c9.5,2.7,19.7,8.4,28.8,12.1L60,157.9z M63,153.3c-2.9-6.2-6.8-12.2-10.2-18.1c1.3-0.6,3.2-1.5,4.5-2.1
			c3.4,6,5.3,12.7,8.2,18.9L63,153.3z M75.5,214.4c-1.5,0.2-4,0.8-5.5,1c-2.8-14.1-2.9-28.9-3.8-43.2l2.5-0.4
			C70.4,191.6,75.5,214.4,75.5,214.4 M69.1,163.1l1.8-1.6c4.8,8.2,10.2,17.8,15.5,25.7c-1.2,0.8-2.6,1.9-3.8,2.7
			C82.6,189.9,72.9,172.1,69.1,163.1 M99.8,189.3c-8.3-6.2-15-15.2-22.7-22.1l1.6-2.1c7.7,6.9,16.7,14,25.1,20.1
			C102.8,186.3,100.8,188.2,99.8,189.3 M139.4,213c-10.9-7-22.9-15.3-33.3-23l1.8-2.1c10.4,7.6,35.5,19.5,35.5,19.5
			S140.5,211.7,139.4,213 M152.7,206.3c-20.9-8.4-39.8-19.4-58.9-31l1.7-2c19.3,11.5,39.4,18.8,60.5,26.6
			C154.9,201.5,153.9,204.8,152.7,206.3 M187.4,159.2c-23,3.9-40.3,1.4-63.5-0.2l0.2-2.8c23.1,1.5,40.7,0.5,63.5-3.9
			C187.7,154.1,187.4,157.3,187.4,159.2 M260.8,25.7c7.7-5.1,24.8-19.5,24.8-19.5l-2-6.2c-5.4,7.5-18.1,17.7-24.5,23.6L260.8,25.7z
			 M208.3,91.4c-0.9-1.4-1.8-4-2.7-5.5l-7.1,4.4V97C201.8,95.3,205.1,93.5,208.3,91.4">
   </path>
   <path class="st0" d="M220.1,58.4c-1.2-1.2-2.5-3.8-3.6-5c-6.1,5-12,10-18,15v5.8C205.9,69.2,213.1,64.1,220.1,58.4 M199.7,13
			c-1.4-0.9-5.7-3.5-5.7-3.5s-3.4,8-7.5,16.8h5.4C194.6,21.9,197.2,17.5,199.7,13 M237,13.1c-1.3-1.1-4.9-4.2-4.9-4.2
			s-13.3,21.1-21.3,30.4l2.4,2.1C221.4,32.1,229.3,22.7,237,13.1 M119.3,19c-1.8-0.5-4-1.5-5.8-1.9c-0.1,3.1-0.2,6.1-0.4,9.2h5.7
			C119,23.9,119.2,21.4,119.3,19 M204.9,180.6v-6.4c-2.3,0-4.4,0-6.4,0.1v6.1C200.3,180.4,204.9,180.6,204.9,180.6 M218.2,132.7
			c-0.7-1.7-1.5-4.1-2.1-5.8c-6.1,2-11.9,3.9-17.6,5.6v5.5C204.9,136.5,211.4,134.8,218.2,132.7">
   </path>
  </g>
  <g id="name">
   <path class="st1" d="M244.9,116.9h-0.4c-5.9-0.5-6.6-1.3-6.6-8.5V93.8h1.8c4,0,5.1,1.1,6.7,3.5l1.6,2.6c2.2,3.6,4.6,7.7,7.1,11.1
			c3.7,5.4,7.1,7.2,14,7.6c0.7,0.1,1.4,0.1,2.1,0.1h0.3l0.5-1l-0.5-0.1c-1.8-0.5-3.1-1.8-5.5-4.6c-2.5-3-4.8-6.1-6.9-9.3
			c-2.6-3.9-5.8-8.9-7.4-11.9c7.1-3.2,10.7-7.9,10.7-14.2c0-4.8-1.8-8.7-5.1-11c-3-2.2-6.8-3-13.4-3H224v1.2h0.4
			c5.8,0.6,6.4,1.3,6.4,8.2v35.3c0,6.9-0.5,8-6.7,8.5h-0.4v1.2h21.2L244.9,116.9z M237.9,91.5V70c0-2.7,0.4-3.2,0.7-3.5
			c1.4-0.5,2.9-0.7,4.4-0.5c7.1,0,11.3,4.8,11.3,12.8c0,4.8-1.4,8.2-4.5,10.6c-1.9,1.6-4.4,2.2-8.7,2.2L237.9,91.5z M299.1,62.3
			c-17.9,0-27.6,15-27.6,29.2c0,15.9,11.5,27.9,26.7,27.9c16,0,27.5-12.3,27.5-29.3C325.7,74.5,314,62.3,299.1,62.3 M317.2,92.6
			c0,12-5.3,24.1-17.2,24.1c-11.7,0-19.9-11.3-19.9-27.5c0-16.6,9-24.2,17.4-24.2C309.4,65,317.2,75.8,317.2,92.6 M348.3,116.6
			c-10.1,0-13.3-11.3-13.8-13.5l-0.1-0.6l-1.2,0.8v0.2c0,0.4,0.8,11,1.5,12.6l0,0.1l0.1,0.1c1.4,0.7,2.9,1.2,4.4,1.7l0.4,0.1
			c2.4,0.7,4.9,1.1,7.4,1.2c11.7,0,18.1-8,18.1-15.6c0-9.3-7.2-13.2-13.6-16.7l-0.4-0.2c-6.1-3.3-10.5-6.2-10.5-12.6
			c0-4.3,2.4-9.4,9-9.4c7.1,0,10.3,5.8,11.7,10.7l0.1,0.5l1.2-0.6l-0.1-0.7c-0.6-4.4-1.1-7.5-1.4-10.4v-0.3l-0.3-0.1l-1.6-0.4
			c-2.8-0.9-5.6-1.3-8.5-1.3c-11,0-16.8,7.5-16.8,14.9c0,8.8,7.5,13.2,12.5,16l1.2,0.7c5.6,3.4,10.4,6.3,10.4,12.5
			S354.3,116.6,348.3,116.6 M427.4,64.8h0.4c3.5,0.4,5.2,1,5.9,1.9s0.4,2.9-0.1,5.5c-1.4,6.4-5.9,22.5-9.4,33.6
			c-5.8-15.9-10.4-29-14.5-41.2l-0.1-0.3h-1.9l-0.1,0.3c-2.4,7.9-5,16.1-7.6,24c-1.8,5.6-3.6,11.3-5.4,16.9
			c-3.8-11.9-7.1-23-10.1-33.9c-0.8-2.7-1-4.1-0.4-5s1.9-1.3,4.8-1.7h0.4v-1.2h-20.1v1.2l0.4,0.1c4.8,0.7,5.6,1.7,7.9,9
			c5.6,17.9,9.9,32.2,13.7,45.3l0.1,0.3h1.9l0.1-0.3c2.7-8.8,5.6-17.6,8.6-26.9l4.6-14.5l0.8,2.3c3.6,10,9.7,26.8,13.7,39.1l0.1,0.3
			h2l0.1-0.3c7.7-26.5,12.3-41,13.6-44.8c2.6-7.8,3.3-8.6,8.6-9.5l0.3-0.1v-1.2h-18.3V64.8z M490.7,105.1c-0.9,2.6-2.2,5.1-3.8,7.5
			c-1.6,2.1-3.5,3-11.3,3c-3.9,0-6.8,0-8.2-1.1c-1.2-1-1.7-2.7-1.7-6.3V91.4h8c7.3,0,7.4,1,8.4,6.3l0.1,0.3h1.2V82.2h-1.2l-0.1,0.3
			c-1,5-1.1,6-8.6,6h-7.8V68.3c0-2.1,0.1-2.2,2.2-2.2h5.5c6.7,0,9.3,0.6,10.8,2.6c1,1.3,1.9,3.3,2.6,6.6l0.1,0.5l1.2-0.6L488,74
			c-0.2-3-0.5-7.6-0.5-10v-0.4h-35.7v1.2h0.4c5.6,0.5,6.3,1.1,6.3,9v34.5c0,6.9-0.5,8-7.5,8.5h-0.4v1.2h38.5l0.1-0.3
			c0.9-3.1,2.4-9.6,2.8-12.2v-0.3l-1.2-0.6L490.7,105.1z M538.3,105.1c-0.8,2.9-2.2,5.6-4,8c-1.7,2.1-4.9,2.5-10.2,2.5
			c-3.8,0-6.4-0.2-7.8-1c-1.2-0.8-1.6-2.4-1.6-7V73.2c0-7.2,0.5-8,6.2-8.4h0.4v-1.3h-20.5v1.2h0.4c5.9,0.5,6.3,1,6.3,8.4v34.9
			c0,7-0.5,8.2-6.8,8.7h-0.4v1.2h36.5l0.1-0.3c0.5-1.6,1.1-4.6,1.7-7.3c0.5-2.1,0.9-4.1,1.2-5l0.1-0.4l-1.4-0.6L538.3,105.1z
			 M582.3,104.6l-0.1,0.4c-0.8,2.9-2.2,5.6-4,8c-1.7,2.1-4.9,2.5-10.2,2.5c-3.8,0-6.4-0.2-7.8-1c-1.2-0.8-1.6-2.3-1.6-7V73.2
			c0-7.2,0.5-8,6.2-8.4h0.4v-1.3h-20.5v1.2h0.4c5.8,0.5,6.3,1,6.3,8.4v34.9c0,7-0.5,8.2-6.8,8.7h-0.4v1.2h36.5l0.1-0.3
			c0.5-1.6,1.1-4.6,1.7-7.3c0.5-2.1,0.9-4.1,1.2-5l0.1-0.3L582.3,104.6z M257.6,134.5c-3.1-2.3-7.7-3.4-13.8-3.4h-19.7v1.2h0.4
			c5.5,0.5,6,1.2,6,8.4V176c0,6.9-0.7,7.8-6.5,8.4h-0.4v1.2h21.5v-1.2h-0.4c-6.3-0.6-6.9-1.3-6.9-8.2v-14.1l5.5,1.5
			c1.1,0.2,2.3,0.2,3.4,0c7.9-1,16.3-6,16.3-17.2C263,141.3,261.2,137.2,257.6,134.5 M237.8,138.6c0-3,0.3-3.9,0.8-4.4
			s1.9-0.8,4-0.8c7.8,0,12.2,4.8,12.2,13.2c0,12.9-9,13.9-11.7,13.9c-1.8,0-3.6-0.2-5.3-0.7L237.8,138.6z M305.3,175.5
			c-5-13.8-10-28.2-16-45.4l-0.1-0.4l-1.9,0.8l-17.5,44.9c-2.9,7.4-4,8.5-8.6,9h-0.4v1.2h17.3v-1.2h-0.4c-3.1-0.3-4.7-0.8-5.3-1.7
			s-0.5-2.4,0.5-5.4c1-3.4,2.3-7.3,4.3-12.8h16.3c2.6,7.4,4.2,12,5.2,15.1c0.5,1.4,0.5,2.4,0,3.1c-0.6,0.9-1.9,1.4-4.5,1.7l-0.4,0.1
			v1.2h20.1v-1.2h-0.4C309,184,308,182.9,305.3,175.5 M292.6,161.6h-14.2l1.4-3.8c2-5.4,4-10.9,6.1-16.2L292.6,161.6z M362.6,180.5
			c-2.5-3-4.8-6.1-7-9.3c-2.6-3.9-5.8-8.9-7.4-11.9c7.1-3.2,10.7-7.9,10.7-14.2c0-4.8-1.8-8.6-5.1-11c-3-2.1-6.9-3-13.4-3h-19.7v1.2
			h0.4c5.8,0.6,6.4,1.3,6.4,8.2v35.3c0,6.9-0.5,8-6.7,8.5h-0.4v1.2h21.2v-1.2h-0.4c-5.9-0.5-6.6-1.4-6.6-8.5v-14.4h1.8
			c4,0,5.1,1.1,6.7,3.5l1.6,2.6c2.1,3.6,4.6,7.6,7,11.1c3.7,5.4,7.1,7.2,14,7.6c0.7,0.1,1.4,0.1,2.1,0.1h0.3l0.5-1l-0.5-0.1
			C366.3,184.7,364.9,183.3,362.6,180.5 M351,146.3c0,4.8-1.4,8.2-4.5,10.6c-1.9,1.6-4.4,2.1-8.7,2.1h-3.2v-21.5
			c0-2.7,0.4-3.3,0.7-3.5c1.4-0.5,2.9-0.7,4.4-0.6C346.8,133.5,351,138.3,351,146.3 M416.4,179c-0.6-0.6-1.2-1.3-1.9-2l-2.2-2.4
			c-4.5-5-12.1-13.3-17.6-19.9c5.6-5.6,11.6-11.4,15.3-15l0.2-0.2c5.8-5.5,7-6.6,12.7-7.2h0.4v-1.2h-18.7v1.2l1.9,0.2
			c1.8,0.2,2.8,0.6,3.1,1.2s-0.4,2-2,3.9c-3.3,4.1-10.3,11.1-15.2,15.8c-1.2,1.3-2.6,2.4-4.2,3.3v-15.2c0-7.8,0.6-8.7,6.3-9.2h0.4
			v-1.2h-20.4v1.2h0.4c5.5,0.5,6.2,1.4,6.2,9.2v33.7c0,7.7-0.7,8.7-6.2,9.2h-0.4v1.2h20.8v-1.2h-0.4c-5.9-0.5-6.7-1.5-6.7-9.2V159
			c0.7,0.1,1.3,0.6,2.8,2.3c6.5,7.6,14,16.2,21.1,24.2l0.1,0.1h12.6v-1.2l-0.4-0.1C420.9,183.9,419.9,182.8,416.4,179">
   </path>
  </g>
 </g>
</svg>